<svg width="105" height="24" viewBox="0 0 105 24" fill="none" xmlns="http://www.w3.org/2000/svg">
<path d="M31.7123 0.259766C30.9792 0.259766 30.373 0.506862 29.8946 1.00091C29.4159 1.49497 29.1768 2.11271 29.1768 2.85386C29.1768 3.57472 29.4159 4.18679 29.8946 4.6912C30.373 5.19589 30.9792 5.44781 31.7123 5.44781C32.4455 5.44781 33.0459 5.19589 33.5148 4.6912C33.983 4.18693 34.2172 3.57472 34.2172 2.85386C34.2172 2.11271 33.9829 1.49497 33.5148 1.00091C33.0459 0.506862 32.4455 0.259766 31.7123 0.259766V0.259766Z" fill="white"/>
<path d="M34.0341 8.39258H29.3604V23.4007H34.0341V8.39258Z" fill="white"/>
<path d="M49.0788 8.87137C48.2335 8.3464 47.2612 8.08398 46.1614 8.08398C45.0207 8.08398 43.9972 8.32612 43.0913 8.80967C42.6885 9.02485 42.3312 9.28613 42.0068 9.58047V8.39264H37.333V23.4007H42.0068V14.8468C42.0068 14.3325 42.1186 13.874 42.3429 13.4726C42.5668 13.0712 42.8724 12.7622 43.2594 12.5461C43.646 12.3299 44.0943 12.2219 44.6035 12.2219C45.3367 12.2219 45.9425 12.4642 46.4213 12.9476C46.8995 13.4316 47.1391 14.0647 47.1391 14.8469V23.4009H51.813V13.7967C51.813 12.7676 51.5686 11.8204 51.0799 10.9557C50.5911 10.091 49.9239 9.39635 49.0788 8.87123V8.87137Z" fill="white"/>
<path d="M65.0092 9.35851C64.6718 9.09312 64.3007 8.86319 63.8942 8.67027C63.0692 8.27949 62.1475 8.08374 61.1295 8.08374C59.7243 8.08374 58.4764 8.42346 57.3874 9.10277C56.2977 9.78207 55.4423 10.7086 54.8212 11.882C54.1999 13.0553 53.8896 14.3939 53.8896 15.8964C53.8896 17.3988 54.2 18.7374 54.8212 19.9108C55.4423 21.0844 56.2977 22.0107 57.3874 22.6902C58.4764 23.3696 59.7243 23.7093 61.1295 23.7093C62.1475 23.7093 63.0741 23.4978 63.9095 23.0762C64.3499 22.8537 64.7451 22.5881 65.1007 22.2851V23.4005H69.6831V0.259766H65.0092V9.35851ZM64.8565 17.7494C64.5711 18.2849 64.1845 18.7019 63.6955 19.0001C63.2068 19.2987 62.6262 19.4479 61.9543 19.4479C61.3228 19.4479 60.7524 19.2933 60.2436 18.9846C59.7343 18.6757 59.337 18.2541 59.0522 17.7185C58.7667 17.1835 58.6246 16.576 58.6246 15.8965C58.6246 15.2171 58.7721 14.6102 59.0676 14.0745C59.3625 13.5394 59.7598 13.1172 60.2591 12.8085C60.7577 12.4996 61.3331 12.3452 61.985 12.3452C62.6369 12.3452 63.2117 12.4996 63.7109 12.8085C64.2098 13.1172 64.5968 13.5342 64.8716 14.0592C65.1465 14.584 65.2842 15.1968 65.2842 15.8965C65.2842 16.5962 65.1415 17.2143 64.8566 17.7494H64.8565Z" fill="white"/>
<path d="M83.8576 9.0102C82.7373 8.37231 81.4442 8.05273 79.9779 8.05273C78.4705 8.05273 77.1165 8.39246 75.9149 9.07176C74.7131 9.75106 73.7614 10.6829 73.0587 11.8666C72.3562 13.0507 72.0049 14.3941 72.0049 15.8964C72.0049 17.3987 72.361 18.7481 73.0741 19.9419C73.7868 21.136 74.7696 22.0677 76.022 22.7367C77.2745 23.4054 78.705 23.7403 80.3141 23.7403C81.556 23.7403 82.697 23.5241 83.7355 23.0917C84.7743 22.6595 85.6601 22.0109 86.3933 21.1465L83.8273 18.5524C83.3789 19.0673 82.8596 19.4532 82.2691 19.7105C81.6783 19.9681 81.0168 20.0965 80.2836 20.0965C79.4893 20.0965 78.802 19.9267 78.2215 19.587C77.6413 19.2473 77.1929 18.764 76.8774 18.1358C76.773 17.9284 76.6924 17.7018 76.6227 17.4664L87.2487 17.4409C87.3296 17.0501 87.3861 16.705 87.4166 16.4064C87.4471 16.1082 87.4624 15.8249 87.4624 15.5571C87.4624 14.0955 87.1415 12.7986 86.5001 11.6663C85.8585 10.5343 84.9773 9.64893 83.8576 9.01062V9.0102ZM76.6213 14.2228C76.6841 14.0077 76.756 13.8009 76.8468 13.6113C77.1417 12.9937 77.5594 12.5151 78.0993 12.1755C78.6385 11.8358 79.2754 11.666 80.0086 11.666C80.7005 11.666 81.2862 11.8155 81.765 12.1138C82.2433 12.4124 82.6051 12.8447 82.8495 13.4107C82.9515 13.6473 83.0294 13.916 83.0924 14.2043L76.6213 14.2229V14.2228Z" fill="white"/>
<path d="M103.928 11.8666C103.214 10.6829 102.248 9.75121 101.025 9.07176C99.8036 8.39246 98.4185 8.05273 96.8709 8.05273C95.3233 8.05273 93.9384 8.39785 92.7163 9.08722C91.4944 9.77731 90.5269 10.7085 89.8144 11.882C89.1012 13.0554 88.7451 14.3833 88.7451 15.8656C88.7451 17.3479 89.1012 18.6864 89.8144 19.88C90.527 21.0741 91.4993 22.0161 92.7317 22.7056C93.9637 23.3957 95.3438 23.7401 96.871 23.7401C98.4186 23.7401 99.8037 23.3956 101.026 22.7056C102.248 22.0163 103.215 21.0743 103.928 19.88C104.641 18.6863 104.997 17.3479 104.997 15.8656C104.997 14.3833 104.641 13.0506 103.928 11.8666H103.928ZM99.8189 17.7339C99.544 18.2797 99.1515 18.7019 98.6427 19C98.1334 19.2986 97.5429 19.4478 96.8708 19.4478C96.2188 19.4478 95.6383 19.2988 95.1295 19C94.6203 18.7019 94.2232 18.2796 93.9384 17.7339C93.6529 17.1885 93.5105 16.5757 93.5105 15.8964C93.5105 15.1967 93.6528 14.5791 93.9384 14.0436C94.2232 13.5086 94.6203 13.0916 95.1295 12.793C95.6383 12.4948 96.2188 12.3452 96.8708 12.3452C97.5428 12.3452 98.128 12.4947 98.6273 12.793C99.1261 13.0916 99.5179 13.503 99.8034 14.0282C100.089 14.5531 100.231 15.1659 100.231 15.8656C100.231 16.5654 100.094 17.1885 99.8187 17.7339H99.8189Z" fill="white"/>
<path d="M25.2198 0.817909C24.2311 -0.0208296 22.7656 0.0994564 21.9464 1.08628L14.5075 10.0482L12.7173 8.52968C11.7286 7.69109 10.2631 7.81123 9.44392 8.7982L0.534726 19.5312C-0.284462 20.5181 -0.147089 21.9979 0.841606 22.8366C1.8303 23.6754 3.29594 23.5552 4.11513 22.5682L11.5409 13.6223L13.3309 15.1406C14.3196 15.9792 15.7854 15.8589 16.6046 14.8721L25.5268 4.12336C26.346 3.13639 26.2086 1.65651 25.22 0.817909H25.2198Z" fill="white"/>
<path d="M21.3877 23.3943H26.0613V5.44727L21.3877 11.0779V23.3943Z" fill="white"/>
</svg>
