<svg width="16" height="12" viewBox="0 0 16 12" fill="none" xmlns="http://www.w3.org/2000/svg">
<path fill-rule="evenodd" clip-rule="evenodd" d="M0.00012207 6.04853C0.00012207 3.6571 0.00012207 2.46139 0.778773 1.56021C0.817676 1.51518 0.869604 1.45868 0.911187 1.41612C1.74347 0.564223 2.82639 0.472543 4.99225 0.289193C5.94063 0.208905 6.96251 0.155273 8.00012 0.155273C9.03773 0.155273 10.0596 0.208905 11.008 0.289193C13.1739 0.472543 14.2568 0.564223 15.0891 1.41612C15.1307 1.45868 15.1825 1.51518 15.2215 1.56021C16.0001 2.46139 16.0001 3.6571 16.0001 6.04853C16.0001 8.4114 16.0001 9.59282 15.2202 10.4944C15.1816 10.5391 15.1289 10.5963 15.0875 10.6386C14.2539 11.4906 13.19 11.5793 11.0624 11.7567C10.1118 11.8358 9.07513 11.8886 8.00012 11.8886C6.92511 11.8886 5.88842 11.8358 4.93788 11.7567C2.81021 11.5793 1.74638 11.4906 0.912717 10.6386C0.871422 10.5963 0.818727 10.5391 0.780091 10.4944C0.00012207 9.59282 0.00012207 8.4114 0.00012207 6.04853ZM5.60012 3.76342C5.60012 3.57101 5.79769 3.44193 5.97389 3.51921L11.1233 5.77773C11.336 5.87104 11.336 6.17284 11.1233 6.26615L5.97389 8.52467C5.79769 8.60195 5.60012 8.47287 5.60012 8.28046V3.76342Z" fill="#10101E"/>
</svg>
