<svg width="14" height="14" viewBox="0 0 14 14" fill="none" xmlns="http://www.w3.org/2000/svg">
<path fill-rule="evenodd" clip-rule="evenodd" d="M1.13356 0.0878906C0.544463 0.0878906 0.0668945 0.565459 0.0668945 1.15456V12.8879C0.0668945 13.477 0.544463 13.9546 1.13356 13.9546H12.8669C13.456 13.9546 13.9336 13.477 13.9336 12.8879V1.15456C13.9336 0.565459 13.456 0.0878906 12.8669 0.0878906H1.13356ZM2.25356 5.42122H4.28023V11.8212H2.25356V5.42122ZM4.41356 3.29322C4.41356 3.92651 3.90019 4.43989 3.26689 4.43989C2.63361 4.43989 2.12023 3.92651 2.12023 3.29322C2.12023 2.65993 2.63361 2.14656 3.26689 2.14656C3.90019 2.14656 4.41356 2.65993 4.41356 3.29322ZM11.8002 7.9355C11.8002 6.01011 10.5559 5.26158 9.31968 5.26158C8.91492 5.24163 8.51192 5.32649 8.15088 5.5077C7.87673 5.6453 7.58972 5.96014 7.3684 6.50766H7.31147V5.42169H5.40023V11.8262H7.43347V8.41984C7.40407 8.07096 7.51572 7.62007 7.74413 7.35175C7.97256 7.08343 8.29931 7.01936 8.54705 6.98681H8.62431C9.27088 6.98681 9.75074 7.3871 9.75074 8.39582V11.8262H11.7839L11.8002 7.9355Z" fill="#10101E"/>
</svg>
