<svg width="238" height="52" viewBox="0 0 238 52" fill="none" xmlns="http://www.w3.org/2000/svg">
<path d="M71.8853 0C70.2234 0 68.8494 0.547096 67.7651 1.64097C66.6798 2.73485 66.1378 4.10259 66.1378 5.74356C66.1378 7.33963 66.6798 8.6948 67.7651 9.81161C68.8494 10.929 70.2234 11.4868 71.8853 11.4868C73.5472 11.4868 74.9082 10.929 75.9709 9.81161C77.0323 8.69512 77.5632 7.33963 77.5632 5.74356C77.5632 4.10259 77.032 2.73485 75.9709 1.64097C74.9082 0.547096 73.5472 0 71.8853 0V0Z" fill="#10101E"/>
<path d="M77.1471 18.0078H66.5529V51.2371H77.1471V18.0078Z" fill="#10101E"/>
<path d="M111.249 19.0676C109.333 17.9052 107.129 17.3242 104.636 17.3242C102.05 17.3242 99.7302 17.8603 97.6767 18.931C96.7636 19.4074 95.9538 19.9859 95.2184 20.6376V18.0076H84.6241V51.237H95.2184V32.2978C95.2184 31.159 95.4719 30.1439 95.9802 29.2551C96.4878 28.3663 97.1805 27.6823 98.0578 27.2037C98.9341 26.725 99.9503 26.486 101.105 26.486C102.766 26.486 104.14 27.0225 105.225 28.0928C106.309 29.1644 106.852 30.566 106.852 32.2981V51.2373H117.447V29.9728C117.447 27.6942 116.893 25.5969 115.785 23.6824C114.677 21.7679 113.164 20.2299 111.249 19.0673V19.0676Z" fill="#10101E"/>
<path d="M147.358 20.1455C146.593 19.5579 145.752 19.0488 144.83 18.6217C142.96 17.7564 140.871 17.323 138.563 17.323C135.378 17.323 132.55 18.0752 130.081 19.5792C127.611 21.0833 125.672 23.1347 124.264 25.7327C122.856 28.3306 122.152 31.2944 122.152 34.6209C122.152 37.9475 122.856 40.9113 124.264 43.5092C125.672 46.1077 127.611 48.1586 130.081 49.6632C132.55 51.1673 135.378 51.9195 138.563 51.9195C140.871 51.9195 142.971 51.4512 144.865 50.5178C145.863 50.025 146.759 49.4371 147.565 48.7663V51.2357H157.952V0H147.358V20.1455ZM147.011 38.7238C146.365 39.9094 145.488 40.8328 144.38 41.4929C143.272 42.154 141.956 42.4844 140.433 42.4844C139.002 42.4844 137.709 42.1421 136.555 41.4587C135.401 40.7747 134.5 39.8413 133.855 38.6554C133.208 37.4707 132.885 36.1256 132.885 34.6212C132.885 33.1169 133.22 31.7733 133.89 30.5871C134.558 29.4025 135.459 28.4675 136.59 27.7841C137.721 27.1001 139.025 26.7584 140.502 26.7584C141.98 26.7584 143.283 27.1001 144.415 27.7841C145.545 28.4675 146.423 29.3909 147.046 30.5532C147.669 31.7152 147.981 33.072 147.981 34.6212C147.981 36.1705 147.657 37.5389 147.012 38.7238H147.011Z" fill="#10101E"/>
<path d="M190.064 19.3738C187.525 17.9615 184.594 17.2539 181.27 17.2539C177.853 17.2539 174.784 18.0061 172.06 19.5101C169.336 21.0142 167.179 23.0772 165.586 25.6981C163.994 28.3199 163.197 31.2944 163.197 34.6206C163.197 37.9468 164.005 40.9345 165.621 43.5776C167.237 46.2214 169.464 48.2845 172.303 49.7656C175.142 51.2461 178.385 51.9876 182.032 51.9876C184.847 51.9876 187.434 51.509 189.788 50.5517C192.142 49.5947 194.15 48.1585 195.812 46.2446L189.996 40.5011C188.979 41.6411 187.802 42.4957 186.464 43.0654C185.124 43.6357 183.625 43.92 181.963 43.92C180.163 43.92 178.605 43.544 177.289 42.7919C175.974 42.0397 174.957 40.9697 174.242 39.5787C174.005 39.1195 173.823 38.618 173.665 38.0966L197.751 38.0401C197.935 37.1749 198.062 36.4107 198.132 35.7496C198.201 35.0895 198.235 34.4623 198.235 33.8694C198.235 30.6333 197.508 27.7618 196.054 25.2546C194.6 22.7484 192.602 20.788 190.064 19.3748V19.3738ZM173.662 30.915C173.804 30.4389 173.967 29.981 174.173 29.5611C174.841 28.1936 175.788 27.134 177.012 26.3821C178.234 25.6299 179.678 25.254 181.34 25.254C182.908 25.254 184.236 25.585 185.321 26.2455C186.405 26.9066 187.225 27.8639 187.779 29.117C188.011 29.6408 188.187 30.2357 188.33 30.8741L173.662 30.9153V30.915Z" fill="#10101E"/>
<path d="M235.552 25.6981C233.935 23.0772 231.743 21.0145 228.973 19.5101C226.204 18.0061 223.064 17.2539 219.556 17.2539C216.048 17.2539 212.909 18.018 210.138 19.5444C207.369 21.0723 205.176 23.1341 203.561 25.7323C201.944 28.3302 201.137 31.2705 201.137 34.5524C201.137 37.8344 201.944 40.7979 203.561 43.4407C205.176 46.0845 207.38 48.1702 210.173 49.6968C212.966 51.2247 216.094 51.9873 219.556 51.9873C223.064 51.9873 226.204 51.2244 228.974 49.6968C231.744 48.1705 233.935 46.0848 235.552 43.4407C237.168 40.7976 237.976 37.8344 237.976 34.5524C237.976 31.2705 237.168 28.3196 235.552 25.6981H235.552ZM226.238 38.6889C225.615 39.8975 224.725 40.8321 223.572 41.4923C222.418 42.1534 221.079 42.4838 219.556 42.4838C218.078 42.4838 216.762 42.1537 215.609 41.4923C214.454 40.8321 213.554 39.8971 212.909 38.6889C212.262 37.4814 211.939 36.1246 211.939 34.6206C211.939 33.0713 212.261 31.7039 212.909 30.5183C213.554 29.3337 214.454 28.4103 215.609 27.7492C216.762 27.0891 218.078 26.7577 219.556 26.7577C221.079 26.7577 222.405 27.0888 223.537 27.7492C224.668 28.4103 225.556 29.3214 226.203 30.4841C226.85 31.6464 227.172 33.0032 227.172 34.5524C227.172 36.1017 226.861 37.4814 226.238 38.6889H226.238Z" fill="#10101E"/>
<path d="M57.1671 1.23594C54.926 -0.621105 51.6041 -0.35478 49.7472 1.83015L32.8851 21.6726L28.8272 18.3106C26.5861 16.4538 23.2642 16.7198 21.4073 18.9051L1.21244 42.6689C-0.644442 44.8541 -0.333053 48.1304 1.90806 49.9875C4.14917 51.8445 7.4714 51.5785 9.32829 49.3933L26.1605 29.586L30.2181 32.9477C32.4592 34.8045 35.7817 34.5381 37.6386 32.3532L57.863 8.55453C59.7199 6.36929 59.4085 3.09268 57.1674 1.23594H57.1671Z" fill="#10101E"/>
<path d="M48.4806 51.2247H59.0745V11.4883L48.4806 23.955V51.2247Z" fill="#10101E"/>
</svg>
