<svg width="12" height="14" viewBox="0 0 12 14" fill="none" xmlns="http://www.w3.org/2000/svg">
<path d="M9.97226 3.56791C9.88711 3.52415 9.80422 3.47619 9.7239 3.4242C9.49049 3.27088 9.27647 3.09023 9.08646 2.88616C8.61048 2.34532 8.43276 1.79669 8.36773 1.41293H8.36997C8.31559 1.09378 8.33802 0.887695 8.34194 0.887695H6.17509V9.21072C6.17509 9.32212 6.17509 9.43296 6.17061 9.54212C6.17061 9.55549 6.16893 9.56775 6.16837 9.58278C6.16837 9.58836 6.16837 9.59504 6.16668 9.60116V9.60618C6.14393 9.90473 6.04766 10.1932 5.88636 10.4461C5.72505 10.699 5.50365 10.9086 5.24164 11.0566C4.96829 11.2111 4.65911 11.2921 4.34463 11.2916C3.33549 11.2916 2.51696 10.474 2.51696 9.46415C2.51696 8.45378 3.33549 7.63612 4.34463 7.63612C4.5358 7.63612 4.72586 7.6662 4.9075 7.72524L4.9103 5.53295C4.35865 5.46224 3.79823 5.50592 3.26442 5.66122C2.73061 5.81652 2.235 6.08008 1.80888 6.43526C1.43542 6.7575 1.12143 7.14202 0.881035 7.57151C0.789652 7.72803 0.444302 8.35798 0.402815 9.37949C0.376465 9.95875 0.551943 10.5603 0.635477 10.8082V10.8137C0.687616 10.9597 0.891687 11.4587 1.22358 11.8792C1.49123 12.2168 1.80745 12.5133 2.16208 12.7593V12.7537L2.16713 12.7593C3.21551 13.4666 4.37882 13.4204 4.37882 13.4204C4.58009 13.4121 5.25453 13.4204 6.02036 13.06C6.86972 12.6601 7.35298 12.0647 7.35298 12.0647C7.66195 11.7089 7.90766 11.3033 8.07956 10.8655C8.27579 10.3531 8.34082 9.7393 8.34082 9.49422V5.07789C8.36717 5.09349 8.71756 5.32352 8.71756 5.32352C8.71756 5.32352 9.22213 5.6449 10.0087 5.85377C10.5727 6.00249 11.3335 6.03423 11.3335 6.03423V3.89708C11.0672 3.92605 10.5262 3.8425 9.9717 3.56846L9.97226 3.56791Z" fill="#10101E"/>
</svg>
