<svg width="14" height="14" viewBox="0 0 14 14" fill="none" xmlns="http://www.w3.org/2000/svg">
<path d="M6.99824 4.70913C5.72514 4.70913 4.68619 5.7481 4.68619 7.02122C4.68619 8.29435 5.72514 9.33332 6.99824 9.33332C8.27135 9.33332 9.3103 8.29435 9.3103 7.02122C9.3103 5.7481 8.27135 4.70913 6.99824 4.70913ZM13.9327 7.02122C13.9327 6.06378 13.9413 5.115 13.8876 4.15929C13.8338 3.04921 13.5806 2.06401 12.7688 1.25226C11.9554 0.438776 10.9719 0.187273 9.86186 0.133504C8.90443 0.079734 7.95567 0.0884065 6.99998 0.0884065C6.04255 0.0884065 5.09379 0.079734 4.1381 0.133504C3.02803 0.187273 2.04285 0.440511 1.23112 1.25226C0.417652 2.06574 0.166153 3.04921 0.112385 4.15929C0.058616 5.11674 0.0672884 6.06551 0.0672884 7.02122C0.0672884 7.97694 0.058616 8.92745 0.112385 9.88316C0.166153 10.9932 0.419386 11.9784 1.23112 12.7902C2.04459 13.6037 3.02803 13.8552 4.1381 13.9089C5.09553 13.9627 6.04428 13.954 6.99998 13.954C7.95741 13.954 8.90616 13.9627 9.86186 13.9089C10.9719 13.8552 11.9571 13.6019 12.7688 12.7902C13.5823 11.9767 13.8338 10.9932 13.8876 9.88316C13.9431 8.92745 13.9327 7.97867 13.9327 7.02122ZM6.99824 10.5787C5.02962 10.5787 3.44084 8.98989 3.44084 7.02122C3.44084 5.05256 5.02962 3.46375 6.99824 3.46375C8.96687 3.46375 10.5556 5.05256 10.5556 7.02122C10.5556 8.98989 8.96687 10.5787 6.99824 10.5787ZM10.7013 4.14888C10.2417 4.14888 9.87053 3.7777 9.87053 3.31806C9.87053 2.85841 10.2417 2.48723 10.7013 2.48723C11.161 2.48723 11.5322 2.85841 11.5322 3.31806C11.5323 3.4272 11.5109 3.5353 11.4692 3.63616C11.4275 3.73702 11.3663 3.82867 11.2891 3.90584C11.2119 3.98302 11.1203 4.04421 11.0194 4.08592C10.9186 4.12762 10.8105 4.14902 10.7013 4.14888Z" fill="#10101E"/>
</svg>
