<svg width="18" height="16" viewBox="0 0 18 16" fill="none" xmlns="http://www.w3.org/2000/svg">
<path fill-rule="evenodd" clip-rule="evenodd" d="M5.8562 2.13013C5.8562 1.49222 6.37333 0.975098 7.01123 0.975098H10.4763C11.1142 0.975098 11.6314 1.49222 11.6314 2.13013V3.28516H16.2515C16.8894 3.28516 17.4065 3.80229 17.4065 4.44019V7.90528C17.4065 8.93187 16.9596 9.8542 16.2515 10.488V14.2579C16.2515 15.2148 15.4758 15.9905 14.5189 15.9905H2.96863C2.01177 15.9905 1.23608 15.2148 1.23608 14.2579V10.4878C0.528017 9.85405 0.0810547 8.9319 0.0810547 7.90528V4.44019C0.0810547 3.80229 0.59818 3.28516 1.23608 3.28516H5.8562V2.13013ZM10.4763 2.13013V3.28516H7.01123V2.13013H10.4763ZM1.23608 4.44019H5.8562H6.43372H11.0538H11.6314H16.2515V7.90528C16.2515 8.66067 15.8895 9.33136 15.3271 9.75379C14.9411 10.0437 14.4621 10.2153 13.9414 10.2153H9.32129V9.63782C9.32129 9.31887 9.06273 9.06031 8.74378 9.06031C8.42483 9.06031 8.16626 9.31887 8.16626 9.63782V10.2153H3.54614C3.02557 10.2153 2.54658 10.0436 2.16044 9.75358C1.59801 9.33111 1.23608 8.66062 1.23608 7.90528V4.44019ZM8.16626 11.3704H3.54614C3.14143 11.3704 2.75255 11.3007 2.39111 11.1729V14.2579C2.39111 14.5768 2.64968 14.8355 2.96863 14.8355H14.5189C14.8378 14.8355 15.0964 14.5768 15.0964 14.2579V11.173C14.735 11.3008 14.3461 11.3704 13.9414 11.3704H9.32129V11.9479C9.32129 12.2668 9.06273 12.5254 8.74378 12.5254C8.42483 12.5254 8.16626 12.2668 8.16626 11.9479V11.3704Z" fill="#010128"/>
</svg>
