<svg width="14" height="17" viewBox="0 0 14 17" fill="none" xmlns="http://www.w3.org/2000/svg">
<path fill-rule="evenodd" clip-rule="evenodd" d="M7.16263 0.830566C4.85023 0.830566 2.97565 2.70515 2.97565 5.01755C2.97565 6.92667 4.25339 8.53736 6.00036 9.04111C4.62122 9.20916 3.43832 9.69697 2.54721 10.5752C1.41308 11.6929 0.838867 13.3569 0.838867 15.5282C0.838867 15.8313 1.08451 16.0768 1.38751 16.0768C1.69052 16.0768 1.93615 15.8313 1.93615 15.5282C1.93615 13.5416 2.45919 12.2025 3.31743 11.3567C4.1773 10.5093 5.46097 10.0708 7.16257 10.0708C8.86419 10.0708 10.1479 10.5093 11.0078 11.3567C11.866 12.2025 12.3891 13.5416 12.3891 15.5282C12.3891 15.8313 12.6347 16.0768 12.9378 16.0768C13.2407 16.077 13.4864 15.8313 13.4864 15.5283C13.4864 13.3569 12.9121 11.6929 11.778 10.5752C10.8869 9.69698 9.70399 9.20919 8.32488 9.04112C10.0718 8.53739 11.3496 6.92669 11.3496 5.01755C11.3496 2.70515 9.47504 0.830566 7.16263 0.830566ZM4.07293 5.01755C4.07293 3.31115 5.45624 1.92784 7.16263 1.92784C8.86903 1.92784 10.2523 3.31115 10.2523 5.01755C10.2523 6.72394 8.86903 8.10725 7.16263 8.10725C5.45624 8.10725 4.07293 6.72394 4.07293 5.01755Z" fill="#010128"/>
</svg>
