<svg width="200" height="54" viewBox="0 0 200 54" fill="none" xmlns="http://www.w3.org/2000/svg">
<path fill-rule="evenodd" clip-rule="evenodd" d="M183.47 18.9549C180.27 18.9332 179.735 22.2321 179.735 27.6623C179.735 33.785 180.641 36.5505 183.451 36.5505C186.799 36.5505 187.012 33.2762 187.012 27.6623C187.012 22.028 186.697 18.9744 183.47 18.9549ZM183.414 40.3414C176.572 40.3414 171.865 35.1351 171.865 27.475C171.865 19.8146 176.572 14.5715 183.414 14.5715C190.293 14.5715 195 19.8146 195 27.475C195 35.1351 190.293 40.3414 183.414 40.3414Z" fill="white"/>
<path fill-rule="evenodd" clip-rule="evenodd" d="M172.395 36.5589C172.395 37.9583 170.843 40.5288 166.949 40.5288C163.056 40.5288 160.842 36.9406 160.537 34.0393C160.432 33.0467 160.312 32.2117 160.194 31.5434C160.105 31.0367 159.595 29.637 157.992 29.5861H155.753V33.1743C155.753 34.0648 156.49 35.5663 158.908 35.3119V39.9941H145.93V35.3119C148.143 35.6171 148.78 33.7085 148.78 33.0725V21.6208C148.601 19.2544 146.795 19.3304 145.93 19.3304V14.5464H160.281C164.939 14.5464 168.802 17.8291 168.918 21.8282C169.036 25.8962 166.797 28.0851 163.877 28.5104C165.982 29.408 167.815 32.2579 168.451 35.3119C168.654 36.0501 169.672 35.8462 169.57 34.4977H172.395V36.5589ZM155.753 25.1075V18.9743H158.602L158.552 18.9993C160.241 18.9993 161.611 20.3692 161.611 22.0594C161.611 23.7485 160.241 25.1181 158.552 25.1181L155.753 25.1075Z" fill="white"/>
<path fill-rule="evenodd" clip-rule="evenodd" d="M19.1846 32.8436V30.3549H24.4087V39.9741H4.21997V35.3008C5.60232 35.289 6.15355 33.785 6.15355 33.1119V21.5709C6.15355 21.0108 5.8991 19.49 4.25389 19.3347V14.5627H15.7876V19.3347C15.2055 19.3304 13.2773 19.6886 13.2773 21.686V35.3008H13.2715C13.2799 35.2919 16.6811 35.3008 16.6811 35.3008C18.666 35.3008 19.1846 33.327 19.1846 32.8436Z" fill="white"/>
<path fill-rule="evenodd" clip-rule="evenodd" d="M28.0562 32.7554V21.7121C28.0562 20.8827 27.203 19.325 25.6956 19.325V14.5563H47.1831V24.1773H41.5537V21.5568C41.5537 20.6037 40.8964 19.3348 39.3241 19.3348H35.6405V24.6958H39.8465V29.1507H35.6405V35.2937H39.2023C41.2127 35.2937 41.5498 33.6578 41.5498 33.0857V30.3868H47.1831V40.0068H25.6616V35.3148C27.1606 35.3148 28.0562 33.8613 28.0562 32.7554Z" fill="white"/>
<path fill-rule="evenodd" clip-rule="evenodd" d="M70.1334 35.3008H71.3593V40.0569H58.1099V35.3395C59.0263 35.3395 60.6973 34.5783 60.6973 32.7436V21.9162C60.6973 19.9199 59.0263 19.3207 58.1099 19.3207V14.5302H79.0479V23.8821H74.2843V21.1932C74.2843 20.3487 73.6614 18.9744 72.1077 18.9744H67.8555V24.2467H72.8273V28.7309H67.8555V33.1371C67.8555 34.8043 69.5105 35.3008 70.1334 35.3008Z" fill="white"/>
<path fill-rule="evenodd" clip-rule="evenodd" d="M92.9757 35.314V40.0569H80.4119V35.314C82.4829 35.314 83.2106 33.7341 83.2106 32.8199V21.8695C83.2106 21.1118 82.6529 19.3239 80.4458 19.3239V14.5302H92.9757V19.3239C90.6371 19.3239 90.1575 21.0358 90.1575 22.0215V32.8712C90.1575 34.0907 91.2473 35.314 92.9757 35.314Z" fill="white"/>
<path fill-rule="evenodd" clip-rule="evenodd" d="M114.883 32.9962L114.885 32.8843V39.9941H108.858V38.8997C107.531 39.7142 106.689 40.1162 105.076 40.1162C98.9022 40.1162 94.0364 36.1451 94.0364 27.7509C94.0364 19.7396 97.6662 14.49 103.162 14.49C105.028 14.49 107.877 14.2034 109.268 15.5831V14.5682H114.955V23.8777H109.327C109.327 21.2138 108.877 18.1938 105.633 18.1938C102.109 18.1938 102.261 21.9259 102.267 26.0433C102.272 30.07 101.905 35.7385 105.63 35.7385C107.59 35.688 108.191 34.6504 108.394 34.3451C110.015 31.9136 108.089 30.8485 107.198 30.8485H106.411V27.1004H117.335V30.8485L116.912 30.8506C115.596 30.8506 114.883 31.5964 114.883 32.9962Z" fill="white"/>
<path fill-rule="evenodd" clip-rule="evenodd" d="M144.606 39.9941V35.3119C142.799 35.3119 142.291 34.3452 141.981 33.6323L134.193 14.5465H127.506L120.584 33.2761C120.547 33.3576 120.51 33.4454 120.472 33.5371C120.119 34.3902 119.622 35.5875 117.072 35.3119V39.9941H128.828V35.3119H128.053C125.588 34.8261 126.31 33.0413 126.537 32.4821C126.547 32.4556 126.557 32.4318 126.565 32.4111H133.816C133.825 32.4387 133.835 32.4694 133.846 32.5028C134.058 33.1451 134.601 34.7933 132.544 35.356V39.9941H144.606ZM132.206 27.96L129.994 22.5372L127.974 27.9834H132.188L132.206 27.96ZM127.974 27.9834L127.97 27.9944L127.963 27.9834H127.974Z" fill="white"/>
</svg>
