<svg width="200" height="54" viewBox="0 0 200 54" fill="none" xmlns="http://www.w3.org/2000/svg">
<path d="M111.339 19.3421C111.339 14.2072 111.428 9.42656 111.696 5L98.0257 7.5674V8.80684L99.366 8.9839C100.349 9.07243 100.974 9.42656 101.332 9.95775C101.689 10.5775 101.957 11.4628 102.136 12.7907C102.314 15.3581 102.493 21.2012 102.404 30.4085C102.404 39.5272 102.314 45.2817 102.136 47.495C107.05 48.5573 110.892 49 113.751 49C119.112 49 123.311 47.495 126.349 44.3964C129.387 41.3863 130.995 37.1368 130.995 31.9135C130.995 27.7525 129.834 24.2998 127.511 21.5553C125.188 18.8109 122.239 17.4829 118.755 17.4829C116.432 17.4829 114.019 18.1026 111.339 19.3421ZM111.607 46.6097C111.428 43.7767 111.249 35.2777 111.249 21.3783C112.054 21.1127 113.126 20.9356 114.466 20.9356C116.61 20.9356 118.308 21.998 119.559 24.2113C120.81 26.4245 121.435 29.0805 121.435 32.4447C121.435 36.6056 120.72 39.9698 119.291 42.8028C117.861 45.5473 116.074 46.9638 113.84 46.9638C113.126 46.7867 112.411 46.6982 111.607 46.6097ZM46.7395 5.88531H11V7.65594L12.8763 7.833C14.3059 8.09859 15.2887 8.62978 15.9142 9.42656C16.5396 10.3119 16.897 11.7284 16.9864 13.6761C17.7012 23.2374 17.7012 32.1791 16.9864 40.4125C16.8077 42.3602 16.4503 43.7767 15.9142 44.662C15.2887 45.5473 14.3059 46.0785 12.8763 46.2555L11 46.5211V48.2918H34.052V46.5211L31.6396 46.3441C31.0509 46.2953 30.4783 46.1289 29.9562 45.855C29.4341 45.5812 28.9734 45.2055 28.6017 44.7505C27.9763 43.8652 27.6189 42.4487 27.5295 40.501C27.2615 36.9598 27.0828 32.8873 27.0828 28.3722L31.9076 28.4608C34.4987 28.5493 36.2857 30.497 37.1792 34.3924H38.9662V19.9618H37.1792C36.2857 23.7686 34.5881 25.7163 31.9076 25.8048L27.0828 25.8934C27.0828 17.9256 27.2615 12.2596 27.5295 8.80684H34.5881C39.5916 8.80684 42.9869 11.994 44.9525 18.3682L47.0969 17.7485L46.7395 5.88531ZM42.5401 33.1529C42.5401 37.7565 43.8804 41.5634 46.4715 44.5734C49.0626 47.5835 52.9046 49 57.7294 49C62.5543 49 66.4856 47.495 69.3448 44.3964C72.2039 41.3863 73.5442 37.5795 73.5442 32.9759C73.5442 28.3722 72.2039 24.5654 69.6128 21.5553C67.0217 18.5453 63.1797 17.1288 58.3549 17.1288C53.53 17.1288 49.5987 18.6338 46.7395 21.7324C43.8804 24.7425 42.5401 28.5493 42.5401 33.1529ZM62.4649 23.0604C63.5371 25.6278 63.9838 28.992 63.9838 33.0644C63.9838 42.4487 62.0182 47.0523 58.1762 47.0523C56.2105 47.0523 54.6916 45.7243 53.6194 43.0684C52.5472 40.4125 52.1005 37.0483 52.1005 33.0644C52.1005 23.7686 54.0661 19.165 57.9081 19.165C59.8738 19.0765 61.3927 20.4044 62.4649 23.0604ZM137.965 44.5734C140.913 47.495 144.666 49 149.133 49C151.903 49 154.315 48.4688 156.46 47.3179C158.604 46.2555 160.302 44.9276 161.463 43.334L160.57 42.2716C158.604 43.7767 156.371 44.4849 153.779 44.4849C150.205 44.4849 147.436 43.334 145.559 40.9437C143.594 38.5533 142.7 35.5433 142.879 31.6479H161.999C161.999 27.3984 160.927 23.9457 158.694 21.2012C156.46 18.5453 153.333 17.2173 149.312 17.2173C144.308 17.2173 140.466 18.8109 137.697 21.9095C134.927 25.008 133.587 28.8149 133.587 33.33C133.587 37.9336 135.016 41.6519 137.965 44.5734ZM144.576 22.3521C145.559 20.2274 146.81 19.165 148.508 19.165C151.188 19.165 152.529 22.5292 152.529 29.3461L143.058 29.5231C143.147 26.8672 143.594 24.4769 144.576 22.3521ZM186.034 18.8109C183.622 17.7485 180.584 17.1288 176.921 17.1288C173.168 17.1288 170.22 18.1026 167.986 19.9618C165.752 21.8209 164.591 24.1227 164.591 26.8672C164.591 29.2575 165.305 31.1167 166.646 32.4447C167.986 33.7726 170.13 34.9235 172.9 35.8974C175.402 36.7827 177.189 37.668 178.082 38.4648C178.976 39.3501 179.512 40.3239 179.512 41.6519C179.512 42.8913 179.065 44.0423 178.082 44.9276C177.189 45.9014 175.938 46.3441 174.33 46.3441C170.398 46.3441 167.45 43.5111 165.395 37.8451L163.876 38.2877L164.233 47.1408C167.45 48.3803 171.024 49 174.955 49C179.065 49 182.192 48.1147 184.515 46.2555C186.838 44.4849 188 41.9175 188 38.7304C188 36.6056 187.464 34.835 186.302 33.507C185.141 32.1791 183.265 31.0282 180.584 29.9658C177.636 28.9034 175.581 27.9296 174.508 27.0443C173.436 26.159 172.9 25.0966 172.9 23.7686C172.9 22.4406 173.257 21.3783 174.062 20.493C174.866 19.6076 175.849 19.2535 177.099 19.2535C180.673 19.2535 183.265 21.8209 184.873 26.8672L186.392 26.4245L186.034 18.8109ZM100.081 18.0141C98.8299 17.3944 97.4896 17.1288 95.9707 17.1288C94.4518 17.1288 92.9329 17.7485 91.2352 18.9879C89.5376 20.2274 88.2867 21.9095 87.3039 24.2113L87.3932 17.1288L73.8122 19.7847V21.0241L75.1524 21.1127C76.8501 21.2897 77.8329 22.6177 78.0116 25.008C78.5477 30.497 78.5477 36.34 78.0116 42.5372C77.8329 44.9276 76.8501 46.167 75.1524 46.4326L73.8122 46.6097V48.2918H92.7542V46.6097L90.3417 46.4326C88.6441 46.2555 87.6613 44.9276 87.4826 42.5372C86.9465 37.4024 86.8571 31.9135 87.3039 26.2475C87.84 25.3622 89.0015 24.831 90.7885 24.6539C92.5755 24.4769 94.6305 25.008 96.7749 26.2475L100.081 18.0141Z" fill="white"/>
</svg>
