<svg width="222" height="222" viewBox="0 0 222 222" fill="none" xmlns="http://www.w3.org/2000/svg">
<path d="M175.2 80.395C193.69 80.395 208.73 65.355 208.73 46.865C208.73 28.375 193.69 13.335 175.2 13.335C156.71 13.335 141.67 28.375 141.67 46.865C141.67 65.355 156.71 80.395 175.2 80.395ZM175.2 73.905C165.89 73.905 157.67 69.185 152.8 62.005C156.17 57.045 161.15 53.285 166.84 51.435C169.18 53.165 172.07 54.195 175.2 54.195C178.33 54.195 181.22 53.165 183.56 51.435C189.25 53.285 194.23 57.045 197.6 62.005C192.73 69.185 184.51 73.905 175.2 73.905ZM175.2 47.705C171.02 47.705 167.63 44.305 167.63 40.135C167.63 35.965 171.03 32.565 175.2 32.565C179.37 32.565 182.77 35.965 182.77 40.135C182.77 44.305 179.37 47.705 175.2 47.705ZM175.2 19.825C190.11 19.825 202.24 31.955 202.24 46.865C202.24 49.895 201.73 52.805 200.81 55.535C197.33 51.425 192.89 48.185 187.91 46.135C188.77 44.315 189.26 42.285 189.26 40.135C189.26 32.385 182.95 26.075 175.2 26.075C167.45 26.075 161.14 32.385 161.14 40.135C161.14 42.285 161.62 44.315 162.49 46.135C157.52 48.185 153.08 51.425 149.59 55.535C148.67 52.815 148.16 49.895 148.16 46.865C148.16 31.955 160.29 19.825 175.2 19.825Z" fill="#6161FA"/>
<path d="M175.2 128.865C160.12 128.865 146.69 136.085 138.19 147.235L116.25 134.695C114.69 133.805 112.71 134.345 111.82 135.905C110.93 137.465 111.47 139.445 113.03 140.335L134.62 152.675C133.56 154.565 132.63 156.525 131.84 158.565L109.8 145.975C108.24 145.085 106.26 145.625 105.37 147.185C104.48 148.745 105.02 150.725 106.58 151.615L129.88 164.925C129.1 168.295 128.69 171.795 128.69 175.395C128.69 201.045 149.56 221.905 175.2 221.905C200.84 221.905 221.71 201.035 221.71 175.395C221.71 149.755 200.84 128.885 175.2 128.885V128.865ZM175.2 215.395C153.13 215.395 135.18 197.445 135.18 175.375C135.18 153.305 153.13 135.355 175.2 135.355C197.27 135.355 215.22 153.305 215.22 175.375C215.22 197.445 197.27 215.395 175.2 215.395Z" fill="#6161FA"/>
<path d="M110.14 79.595C110.63 79.595 111.13 79.485 111.59 79.245L133.82 68.085C134.82 70.025 135.95 71.885 137.2 73.645L114.52 85.035C112.92 85.835 112.27 87.785 113.08 89.395C113.65 90.525 114.79 91.185 115.98 91.185C116.47 91.185 116.97 91.075 117.43 90.835L141.42 78.785C149.9 87.755 161.91 93.365 175.2 93.365C200.85 93.365 221.71 72.495 221.71 46.855C221.71 21.215 200.84 0.345032 175.2 0.345032C149.56 0.345032 128.69 21.215 128.69 46.855C128.69 52.195 129.6 57.325 131.26 62.105L108.68 73.435C107.08 74.235 106.43 76.185 107.24 77.795C107.81 78.925 108.95 79.585 110.14 79.585V79.595ZM175.2 6.84503C197.27 6.84503 215.22 24.795 215.22 46.865C215.22 68.935 197.27 86.885 175.2 86.885C153.13 86.885 135.18 68.935 135.18 46.865C135.18 24.795 153.13 6.84503 175.2 6.84503Z" fill="#6161FA"/>
<path d="M175.2 141.845C156.71 141.845 141.67 156.885 141.67 175.375C141.67 193.865 156.71 208.905 175.2 208.905C193.69 208.905 208.73 193.865 208.73 175.375C208.73 156.885 193.69 141.845 175.2 141.845ZM175.2 202.415C165.89 202.415 157.67 197.695 152.8 190.515C156.17 185.555 161.15 181.795 166.84 179.945C169.18 181.675 172.07 182.705 175.2 182.705C178.33 182.705 181.22 181.675 183.56 179.945C189.25 181.795 194.23 185.555 197.6 190.515C192.73 197.695 184.51 202.415 175.2 202.415ZM175.2 176.215C171.02 176.215 167.63 172.815 167.63 168.645C167.63 164.475 171.03 161.075 175.2 161.075C179.37 161.075 182.77 164.475 182.77 168.645C182.77 172.815 179.37 176.215 175.2 176.215ZM200.81 184.045C197.33 179.935 192.89 176.695 187.91 174.645C188.77 172.825 189.26 170.795 189.26 168.645C189.26 160.895 182.95 154.585 175.2 154.585C167.45 154.585 161.14 160.895 161.14 168.645C161.14 170.795 161.62 172.825 162.49 174.645C157.52 176.695 153.08 179.935 149.59 184.045C148.67 181.325 148.16 178.405 148.16 175.375C148.16 160.465 160.29 148.335 175.2 148.335C190.11 148.335 202.24 160.465 202.24 175.375C202.24 178.405 201.73 181.315 200.81 184.045Z" fill="#6161FA"/>
<path d="M55.35 75.425C35.67 75.425 19.65 91.435 19.65 111.125C19.65 115.695 20.52 120.075 22.1 124.095C26.57 118.365 32.41 113.915 39.13 111.125C37.75 108.545 36.96 105.595 36.96 102.475C36.96 92.335 45.21 84.085 55.35 84.085C65.49 84.085 73.74 92.335 73.74 102.475C73.74 105.605 72.95 108.545 71.57 111.125C78.29 113.915 84.13 118.365 88.6 124.095C90.17 120.075 91.05 115.705 91.05 111.125C91.05 91.445 75.04 75.425 55.35 75.425Z" fill="#6161FA"/>
<path d="M67.3001 116.425C64.0801 119.185 59.9101 120.855 55.3501 120.855C50.7901 120.855 46.6101 119.185 43.4001 116.425C36.0101 119.045 29.7401 123.985 25.4501 130.575C31.8301 140.345 42.8501 146.815 55.3601 146.815C67.8701 146.815 78.8901 140.345 85.2701 130.575C80.9801 123.985 74.7101 119.045 67.3201 116.425H67.3001Z" fill="#6161FA"/>
<path d="M67.2501 102.465C67.2501 95.905 61.9101 90.565 55.3501 90.565C48.7901 90.565 43.4501 95.905 43.4501 102.465C43.4501 109.025 48.7901 114.365 55.3501 114.365C61.9101 114.365 67.2501 109.025 67.2501 102.465Z" fill="#6161FA"/>
<path d="M55.3501 55.955C24.9301 55.955 0.180054 80.705 0.180054 111.125C0.180054 141.545 24.9301 166.295 55.3501 166.295C85.7701 166.295 110.52 141.545 110.52 111.125C110.52 80.705 85.7701 55.955 55.3501 55.955ZM55.3501 153.305C32.0901 153.305 13.16 134.375 13.16 111.115C13.16 87.855 32.0901 68.925 55.3501 68.925C78.6101 68.925 97.5401 87.855 97.5401 111.115C97.5401 134.375 78.6101 153.305 55.3501 153.305Z" fill="#6161FA"/>
</svg>
