<svg width="222" height="223" viewBox="0 0 222 223" fill="none" xmlns="http://www.w3.org/2000/svg">
<path d="M221.725 120.325C221.725 99.175 215.775 78.735 204.505 61.005L209.235 57.235C210.635 56.115 210.865 54.075 209.745 52.675L204.345 45.905C181.535 17.305 147.495 0.905029 110.945 0.905029C79.0549 0.905029 49.0649 13.325 26.4949 35.885C23.3449 39.035 20.3349 42.405 17.5449 45.915L12.1549 52.685C11.0349 54.085 11.2649 56.125 12.6649 57.245L17.3949 61.015C6.12494 78.745 0.184937 99.185 0.184937 120.335V150.625C0.184937 150.925 0.214937 151.225 0.294937 151.515L11.4949 193.315C12.9149 198.625 17.7349 202.135 22.9949 202.135C24.0149 202.135 25.0449 202.005 26.0749 201.725L31.3649 200.305C32.1649 202.355 33.6249 204.075 35.5549 205.185C37.0549 206.055 38.7149 206.495 40.4049 206.495C41.2549 206.495 42.1049 206.385 42.9449 206.155L47.1249 205.035C52.3149 203.645 55.3949 198.295 54.0049 193.115L39.4449 138.785C38.7749 136.275 37.1649 134.175 34.9049 132.875C32.6549 131.575 30.0249 131.225 27.5149 131.905L23.3349 133.025C18.5049 134.315 15.4949 139.055 16.2349 143.885L6.67494 146.445V120.335C6.67494 100.445 12.2649 81.215 22.8449 64.535C27.5049 66.195 32.9049 64.825 36.1549 60.755C38.3949 57.945 40.8049 55.245 43.3249 52.725C61.3949 34.665 85.4049 24.715 110.945 24.715C140.205 24.715 167.475 37.855 185.745 60.755C188.095 63.695 191.555 65.225 195.055 65.225C196.405 65.225 197.755 64.995 199.045 64.535C209.635 81.215 215.225 100.445 215.225 120.335V146.445L205.665 143.885C206.405 139.055 203.395 134.315 198.565 133.025L194.385 131.905C191.875 131.235 189.245 131.575 186.995 132.875C184.745 134.175 183.135 136.275 182.455 138.785L167.895 193.115C166.505 198.305 169.595 203.645 174.775 205.035L178.955 206.155C179.795 206.375 180.645 206.495 181.495 206.495C183.185 206.495 184.845 206.055 186.345 205.185C188.285 204.065 189.735 202.355 190.535 200.305L195.825 201.725C196.855 202.005 197.885 202.135 198.905 202.135C204.155 202.135 208.975 198.625 210.405 193.315L221.605 151.515C221.685 151.225 221.715 150.925 221.715 150.625V120.335L221.725 120.325ZM25.0149 139.275L29.1949 138.155C29.4749 138.085 29.7549 138.045 30.0449 138.045C30.6049 138.045 31.1649 138.195 31.6649 138.485C32.4149 138.915 32.9549 139.615 33.1749 140.455L47.7349 194.785C47.9549 195.625 47.8449 196.495 47.4149 197.245C46.9849 197.995 46.2849 198.535 45.4449 198.755L41.2649 199.875C39.5349 200.335 37.7549 199.305 37.2949 197.585L22.7349 143.255C22.2749 141.525 23.3049 139.745 25.0249 139.285L25.0149 139.275ZM17.8549 150.155L29.6149 194.035L24.3949 195.435C21.5149 196.205 18.5449 194.495 17.7749 191.615L7.41493 152.955L17.8649 150.155H17.8549ZM194.445 58.695C193.005 58.535 191.725 57.825 190.825 56.695C171.315 32.235 142.205 18.205 110.955 18.205C83.6849 18.205 58.0449 28.825 38.7449 48.115C36.0549 50.805 33.4749 53.695 31.0849 56.695C29.2249 59.025 25.8149 59.415 23.4849 57.555L19.2549 54.185L22.6249 49.955C25.2649 46.635 28.1149 43.445 31.0949 40.475C52.4349 19.145 80.7949 7.39503 110.955 7.39503C145.515 7.39503 177.705 22.905 199.285 49.955L202.655 54.185L198.425 57.555C197.295 58.455 195.885 58.865 194.445 58.705V58.695ZM184.625 197.585C184.165 199.315 182.375 200.345 180.655 199.875L176.475 198.755C175.635 198.535 174.935 197.995 174.505 197.245C174.075 196.495 173.955 195.615 174.185 194.785L188.745 140.455C188.965 139.615 189.505 138.915 190.255 138.485C191.005 138.055 191.875 137.935 192.715 138.165L196.895 139.285C198.625 139.745 199.655 141.535 199.185 143.265L184.625 197.595V197.585ZM204.145 191.615C203.375 194.495 200.405 196.215 197.525 195.435L192.305 194.035L204.065 150.155L214.515 152.955L204.155 191.615H204.145Z" fill="#6161FA"/>
<path d="M128.265 114.265V142.385C128.265 145.965 131.175 148.875 134.755 148.875C138.335 148.875 141.245 145.965 141.245 142.385V114.265C141.245 110.685 138.335 107.775 134.755 107.775C131.175 107.775 128.265 110.685 128.265 114.265Z" fill="#6161FA"/>
<path d="M87.1549 148.885C90.7349 148.885 93.6449 145.975 93.6449 142.395V114.275C93.6449 110.695 90.7349 107.785 87.1549 107.785C83.5749 107.785 80.6649 110.695 80.6649 114.275V142.395C80.6649 145.975 83.5749 148.885 87.1549 148.885Z" fill="#6161FA"/>
<path d="M146.655 209.455H75.2649C71.6849 209.455 68.7749 212.365 68.7749 215.945C68.7749 219.525 71.6849 222.435 75.2649 222.435H146.655C150.235 222.435 153.145 219.525 153.145 215.945C153.145 212.365 150.235 209.455 146.655 209.455Z" fill="#6161FA"/>
<path d="M120.685 174.845H101.215V202.965H120.685V174.845Z" fill="#6161FA"/>
<path d="M100.135 114.265V142.385C100.135 149.555 94.3249 155.365 87.1549 155.365H83.9049V159.695C83.9049 164.475 87.7749 168.345 92.5549 168.345H129.335C134.115 168.345 137.985 164.475 137.985 159.695V155.365H134.735C127.565 155.365 121.755 149.555 121.755 142.385V114.265C121.755 107.095 127.565 101.285 134.735 101.285H137.985V90.465C137.985 85.685 134.115 81.815 129.335 81.815H92.5549C87.7749 81.815 83.9049 85.685 83.9049 90.465V101.285H87.1549C94.3249 101.285 100.135 107.095 100.135 114.265ZM107.705 107.775H114.195C115.985 107.775 117.445 109.225 117.445 111.025C117.445 112.825 115.995 114.275 114.195 114.275H107.705C105.915 114.275 104.455 112.825 104.455 111.025C104.455 109.225 105.905 107.775 107.705 107.775ZM107.705 125.085H114.195C115.985 125.085 117.445 126.535 117.445 128.335C117.445 130.135 115.995 131.585 114.195 131.585H107.705C105.915 131.585 104.455 130.135 104.455 128.335C104.455 126.535 105.905 125.085 107.705 125.085ZM107.705 142.395H114.195C115.985 142.395 117.445 143.845 117.445 145.645C117.445 147.445 115.995 148.895 114.195 148.895H107.705C105.915 148.895 104.455 147.445 104.455 145.645C104.455 143.845 105.905 142.395 107.705 142.395Z" fill="#6161FA"/>
</svg>
