<svg width="222" height="223" viewBox="0 0 222 223" fill="none" xmlns="http://www.w3.org/2000/svg">
<path d="M209.82 17.96H128.91C127.12 17.96 125.66 19.41 125.66 21.21C125.66 23.01 127.11 24.46 128.91 24.46H209.82C212.8 24.46 215.23 26.89 215.23 29.87V142.37C215.23 145.35 212.8 147.78 209.82 147.78H29.39C26.41 147.78 23.98 145.35 23.98 142.37V129.39C23.98 127.6 22.53 126.14 20.73 126.14C18.93 126.14 17.48 127.59 17.48 129.39V142.37C17.48 148.93 22.82 154.27 29.38 154.27H69.47L73.18 169.12C73.54 170.56 74.84 171.58 76.33 171.58H105.54V181.98L92.75 185.63C91.36 186.03 90.4 187.3 90.4 188.75V202.81H56.87C51.5 202.81 47.13 207.18 47.13 212.55C47.13 217.92 51.5 222.29 56.87 222.29H182.35C187.72 222.29 192.09 217.92 192.09 212.55C192.09 207.18 187.72 202.81 182.35 202.81H148.82V188.75C148.82 187.3 147.86 186.03 146.47 185.63L133.68 181.98V171.58H162.89C164.38 171.58 165.68 170.57 166.04 169.12L169.75 154.27H209.84C216.4 154.27 221.74 148.93 221.74 142.37V29.87C221.74 23.31 216.4 17.97 209.84 17.97L209.82 17.96ZM96.89 191.19L105.54 188.72V202.81H96.89V191.2V191.19ZM185.59 212.54C185.59 214.33 184.13 215.79 182.34 215.79H56.86C55.07 215.79 53.61 214.33 53.61 212.54C53.61 210.75 55.07 209.29 56.86 209.29H182.34C184.13 209.29 185.59 210.75 185.59 212.54ZM142.32 191.19V202.8H133.67V188.71L142.32 191.18V191.19ZM127.18 202.81H112.04V171.57H127.18V202.81ZM160.34 165.08H78.87L76.17 154.26H163.05L160.35 165.08H160.34Z" fill="#6161FA"/>
<path d="M129.99 125.05C129.99 131.61 135.33 136.95 141.89 136.95H192.51C199.07 136.95 204.41 131.61 204.41 125.05V107.74C204.41 101.18 199.07 95.84 192.51 95.84H141.89C135.33 95.84 129.99 101.18 129.99 107.74V125.05ZM136.48 107.74C136.48 104.76 138.91 102.33 141.89 102.33H192.51C195.49 102.33 197.92 104.76 197.92 107.74V125.05C197.92 128.03 195.49 130.46 192.51 130.46H141.89C138.91 130.46 136.48 128.03 136.48 125.05V107.74Z" fill="#6161FA"/>
<path d="M139.72 54.74H194.67C200.04 54.74 204.41 50.37 204.41 45C204.41 39.63 200.04 35.26 194.67 35.26H139.72C134.35 35.26 129.98 39.63 129.98 45C129.98 50.37 134.35 54.74 139.72 54.74ZM139.72 41.76H194.67C196.46 41.76 197.92 43.22 197.92 45.01C197.92 46.8 196.46 48.26 194.67 48.26H139.72C137.93 48.26 136.47 46.8 136.47 45.01C136.47 43.22 137.93 41.76 139.72 41.76Z" fill="#6161FA"/>
<path d="M139.72 85.03H194.67C200.04 85.03 204.41 80.66 204.41 75.29C204.41 69.92 200.04 65.55 194.67 65.55H139.72C134.35 65.55 129.98 69.92 129.98 75.29C129.98 80.66 134.35 85.03 139.72 85.03ZM139.72 72.05H194.67C196.46 72.05 197.92 73.51 197.92 75.3C197.92 77.09 196.46 78.55 194.67 78.55H139.72C137.93 78.55 136.47 77.09 136.47 75.3C136.47 73.51 137.93 72.05 139.72 72.05Z" fill="#6161FA"/>
<path d="M149.89 119.64H158.54C160.33 119.64 161.79 118.19 161.79 116.39C161.79 114.59 160.34 113.14 158.54 113.14H149.89C148.1 113.14 146.64 114.59 146.64 116.39C146.64 118.19 148.09 119.64 149.89 119.64Z" fill="#6161FA"/>
<path d="M175.85 119.64H184.5C186.29 119.64 187.75 118.19 187.75 116.39C187.75 114.59 186.3 113.14 184.5 113.14H175.85C174.06 113.14 172.6 114.59 172.6 116.39C172.6 118.19 174.05 119.64 175.85 119.64Z" fill="#6161FA"/>
<path d="M56.67 42.09C47.95 43.53 41.28 51.12 41.28 60.23C41.28 70.37 49.53 78.62 59.67 78.62C68.79 78.62 76.38 71.95 77.81 63.23C66.88 61.69 58.21 53.02 56.66 42.08L56.67 42.09Z" fill="#6161FA"/>
<path d="M92.13 24.54H27.23C25.44 24.54 23.98 26 23.98 27.79V92.69C23.98 94.48 25.44 95.94 27.23 95.94H92.13C93.92 95.94 95.38 94.48 95.38 92.69V27.79C95.38 26 93.92 24.54 92.13 24.54ZM59.68 85.12C45.96 85.12 34.8 73.96 34.8 60.24C34.8 46.52 45.96 35.36 59.68 35.36C61.47 35.36 62.93 36.81 62.93 38.61C62.93 48.75 71.18 57 81.32 57C83.11 57 84.57 58.45 84.57 60.25C84.57 73.97 73.41 85.13 59.69 85.13L59.68 85.12Z" fill="#6161FA"/>
<path d="M108.35 0.73999H10.99C5.02004 0.73999 0.170044 5.58 0.170044 11.56V108.92C0.170044 114.89 5.01004 119.74 10.99 119.74H108.35C114.32 119.74 119.17 114.9 119.17 108.92V11.56C119.17 5.59 114.33 0.73999 108.35 0.73999ZM101.86 92.69C101.86 98.06 97.49 102.43 92.12 102.43H27.22C21.85 102.43 17.48 98.06 17.48 92.69V27.79C17.48 22.42 21.85 18.05 27.22 18.05H92.12C97.49 18.05 101.86 22.42 101.86 27.79V92.69Z" fill="#6161FA"/>
</svg>
