<svg width="217" height="217" viewBox="0 0 217 217" fill="none" xmlns="http://www.w3.org/2000/svg">
<path d="M213.56 176.414H199.83V171.134C199.83 155.244 189.74 141.654 175.64 136.444C181.33 132.424 185.05 125.804 185.05 118.334C185.05 106.104 175.1 96.1538 162.87 96.1538C150.64 96.1538 140.69 106.104 140.69 118.334C140.69 125.804 144.41 132.424 150.09 136.444C143.07 139.024 136.95 143.704 132.58 149.954C129.16 146.274 124.92 143.374 120.14 141.564C124.05 138.264 126.54 133.334 126.54 127.834C126.54 117.934 118.49 109.884 108.59 109.884C98.69 109.884 90.6399 117.934 90.6399 127.834C90.6399 133.334 93.13 138.264 97.04 141.564C92.26 143.374 88.01 146.274 84.6 149.954C80.23 143.704 74.11 139.024 67.09 136.444C72.77 132.424 76.4899 125.804 76.4899 118.334C76.4899 106.104 66.54 96.1538 54.31 96.1538C42.08 96.1538 32.1299 106.104 32.1299 118.334C32.1299 125.814 35.8499 132.434 41.5399 136.444C27.4299 141.654 17.3499 155.234 17.3499 171.134V176.414H3.61995C1.86995 176.414 0.449951 177.834 0.449951 179.584V192.254C0.449951 194.004 1.86995 195.424 3.61995 195.424H8.26994V213.374C8.26994 215.124 9.68996 216.544 11.44 216.544H205.75C207.5 216.544 208.92 215.124 208.92 213.374V195.424H213.57C215.32 195.424 216.74 194.004 216.74 192.254V179.584C216.74 177.834 215.32 176.414 213.57 176.414H213.56ZM147.03 118.334C147.03 109.604 154.14 102.494 162.87 102.494C171.6 102.494 178.71 109.604 178.71 118.334C178.71 127.064 171.6 134.174 162.87 134.174C154.14 134.174 147.03 127.064 147.03 118.334ZM162.87 140.504C179.76 140.504 193.49 154.244 193.49 171.124V176.404H141.32V172.184C141.32 166.024 139.61 160.254 136.64 155.324C142.17 146.134 152.06 140.504 162.87 140.504ZM96.9799 127.834C96.9799 121.424 102.19 116.214 108.6 116.214C115.01 116.214 120.22 121.424 120.22 127.834C120.22 134.244 115.01 139.454 108.6 139.454C102.19 139.454 96.9799 134.244 96.9799 127.834ZM108.59 145.794C123.15 145.794 134.99 157.634 134.99 172.194V176.414H82.19V172.194C82.19 157.634 94.03 145.794 108.59 145.794ZM38.47 118.334C38.47 109.604 45.58 102.494 54.31 102.494C63.04 102.494 70.1499 109.604 70.1499 118.334C70.1499 127.064 63.04 134.174 54.31 134.174C45.58 134.174 38.47 127.064 38.47 118.334ZM23.69 171.134C23.69 154.244 37.43 140.514 54.31 140.514C65.11 140.514 75 146.154 80.54 155.334C77.57 160.264 75.86 166.024 75.86 172.194V176.414H23.69V171.134ZM202.58 210.204H14.61V195.424H202.58V210.204ZM210.4 189.084H6.79994V182.744H210.4V189.084Z" fill="#6161FA"/>
<path d="M104.49 61.5137C105.08 61.5137 105.63 61.2838 106.04 60.8738L124.21 42.7037L121.11 39.6038L106.73 53.9838C105.49 55.2238 103.49 55.2238 102.25 53.9838L96.09 47.8237L92.99 50.9237L102.95 60.8838C103.36 61.2938 103.92 61.5237 104.5 61.5237L104.49 61.5137Z" fill="#6161FA"/>
<path d="M107.44 99.3136C107.81 99.4636 108.2 99.5335 108.6 99.5335C109 99.5335 109.39 99.4636 109.76 99.3136C121.16 94.8436 130.83 87.1235 137.73 77.0135C144.63 66.8935 148.28 55.0736 148.28 42.8236V17.7536C148.28 16.4536 147.48 15.2836 146.27 14.8036L109.76 0.483613C109.02 0.193613 108.19 0.193613 107.45 0.483613L70.9399 14.8036C69.7299 15.2836 68.9299 16.4536 68.9299 17.7536V42.8236C68.9299 55.0736 72.5799 66.8935 79.4799 77.0135C86.3799 87.1335 96.0499 94.8436 107.45 99.3136H107.44ZM86.2599 48.6736L93.8499 41.0836C95.0899 39.8436 97.0899 39.8436 98.3299 41.0836L104.49 47.2436L118.87 32.8636C120.11 31.6236 122.11 31.6236 123.35 32.8636L130.94 40.4536C131.53 41.0436 131.87 41.8536 131.87 42.6936C131.87 43.5336 131.54 44.3436 130.94 44.9336L110.53 65.3436C108.92 66.9536 106.78 67.8436 104.5 67.8436C102.22 67.8436 100.08 66.9536 98.4699 65.3436L86.2699 53.1435C85.0299 51.9035 85.0299 49.9035 86.2699 48.6635L86.2599 48.6736Z" fill="#6161FA"/>
</svg>
